<?xml version="1.0" encoding="UTF-8" standalone="no"?>
<!DOCTYPE svg PUBLIC "-//W3C//DTD SVG 1.1//EN"
 "http://www.w3.org/Graphics/SVG/1.1/DTD/svg11.dtd">
<!-- Generated by graphviz version 12.2.1 (20241206.2353)
 -->
<!-- Pages: 1 -->
<svg width="360pt" height="247pt"
 viewBox="0.00 0.00 359.59 247.13" xmlns="http://www.w3.org/2000/svg" xmlns:xlink="http://www.w3.org/1999/xlink">
<g id="graph0" class="graph" transform="scale(1 1) rotate(0) translate(4 243.13)">
<polygon fill="white" stroke="none" points="-4,4 -4,-243.13 355.59,-243.13 355.59,4 -4,4"/>
<g id="clust1" class="cluster">
<title>cluster48</title>
<path fill="none" stroke="black" d="M163.86,-8C163.86,-8 209.86,-8 209.86,-8 215.86,-8 221.86,-14 221.86,-20 221.86,-20 221.86,-117.82 221.86,-117.82 221.86,-123.82 215.86,-129.82 209.86,-129.82 209.86,-129.82 163.86,-129.82 163.86,-129.82 157.86,-129.82 151.86,-123.82 151.86,-117.82 151.86,-117.82 151.86,-20 151.86,-20 151.86,-14 157.86,-8 163.86,-8"/>
<text text-anchor="middle" x="207.11" y="-15.2" font-family="Times,serif" font-size="14.00">48</text>
</g>
<!-- sigma -->
<g id="node1" class="node">
<title>sigma</title>
<ellipse fill="none" stroke="black" cx="55.86" cy="-198.48" rx="55.86" ry="40.66"/>
<text text-anchor="middle" x="55.86" y="-209.93" font-family="Times,serif" font-size="14.00">sigma</text>
<text text-anchor="middle" x="55.86" y="-193.43" font-family="Times,serif" font-size="14.00">~</text>
<text text-anchor="middle" x="55.86" y="-176.93" font-family="Times,serif" font-size="14.00">Halfnormal</text>
</g>
<!-- Y -->
<g id="node4" class="node">
<title>Y</title>
<ellipse fill="lightgrey" stroke="black" cx="186.86" cy="-81.16" rx="27" ry="40.66"/>
<text text-anchor="middle" x="186.86" y="-92.61" font-family="Times,serif" font-size="14.00">Y</text>
<text text-anchor="middle" x="186.86" y="-76.11" font-family="Times,serif" font-size="14.00">~</text>
<text text-anchor="middle" x="186.86" y="-59.61" font-family="Times,serif" font-size="14.00">T</text>
</g>
<!-- sigma&#45;&gt;Y -->
<g id="edge1" class="edge">
<title>sigma&#45;&gt;Y</title>
<path fill="none" stroke="black" d="M90.97,-166.57C110.95,-148.99 135.77,-127.13 155.16,-110.06"/>
<polygon fill="black" stroke="black" points="157.32,-112.83 162.51,-103.59 152.69,-107.57 157.32,-112.83"/>
</g>
<!-- nu -->
<g id="node2" class="node">
<title>nu</title>
<ellipse fill="none" stroke="black" cx="186.86" cy="-198.48" rx="57.45" ry="40.66"/>
<text text-anchor="middle" x="186.86" y="-209.93" font-family="Times,serif" font-size="14.00">nu</text>
<text text-anchor="middle" x="186.86" y="-193.43" font-family="Times,serif" font-size="14.00">~</text>
<text text-anchor="middle" x="186.86" y="-176.93" font-family="Times,serif" font-size="14.00">Exponential</text>
</g>
<!-- nu&#45;&gt;Y -->
<g id="edge2" class="edge">
<title>nu&#45;&gt;Y</title>
<path fill="none" stroke="black" d="M186.86,-157.47C186.86,-149.69 186.86,-141.43 186.86,-133.34"/>
<polygon fill="black" stroke="black" points="190.36,-133.61 186.86,-123.61 183.36,-133.61 190.36,-133.61"/>
</g>
<!-- mu -->
<g id="node3" class="node">
<title>mu</title>
<ellipse fill="none" stroke="black" cx="306.86" cy="-198.48" rx="44.72" ry="40.66"/>
<text text-anchor="middle" x="306.86" y="-209.93" font-family="Times,serif" font-size="14.00">mu</text>
<text text-anchor="middle" x="306.86" y="-193.43" font-family="Times,serif" font-size="14.00">~</text>
<text text-anchor="middle" x="306.86" y="-176.93" font-family="Times,serif" font-size="14.00">Uniform</text>
</g>
<!-- mu&#45;&gt;Y -->
<g id="edge3" class="edge">
<title>mu&#45;&gt;Y</title>
<path fill="none" stroke="black" d="M276.58,-168.38C258.52,-151.02 235.65,-129.04 217.52,-111.62"/>
<polygon fill="black" stroke="black" points="220.28,-109.42 210.65,-105.02 215.43,-114.47 220.28,-109.42"/>
</g>
</g>
</svg>
